<svg width="44" height="44" viewBox="0 0 44 44" fill="none" xmlns="http://www.w3.org/2000/svg">
<path d="M25.4615 20.6154C25.4615 19.2812 24.9874 18.14 24.0391 17.1917C23.0907 16.2434 21.9495 15.7692 20.6154 15.7692C19.2812 15.7692 18.14 16.2434 17.1917 17.1917C16.2434 18.14 15.7692 19.2812 15.7692 20.6154C15.7692 21.9495 16.2434 23.0907 17.1917 24.0391C18.14 24.9874 19.2812 25.4615 20.6154 25.4615C21.9495 25.4615 23.0907 24.9874 24.0391 24.0391C24.9874 23.0907 25.4615 21.9495 25.4615 20.6154ZM31 29.6154C31 29.9904 30.863 30.3149 30.5889 30.5889C30.3149 30.863 29.9904 31 29.6154 31C29.226 31 28.9014 30.863 28.6418 30.5889L24.9315 26.8894C23.6406 27.7837 22.2019 28.2308 20.6154 28.2308C19.5841 28.2308 18.598 28.0306 17.6569 27.6304C16.7157 27.2302 15.9044 26.6893 15.223 26.0078C14.5415 25.3263 14.0006 24.515 13.6004 23.5739C13.2001 22.6328 13 21.6466 13 20.6154C13 19.5841 13.2001 18.598 13.6004 17.6569C14.0006 16.7157 14.5415 15.9044 15.223 15.223C15.9044 14.5415 16.7157 14.0006 17.6569 13.6004C18.598 13.2001 19.5841 13 20.6154 13C21.6466 13 22.6328 13.2001 23.5739 13.6004C24.515 14.0006 25.3263 14.5415 26.0078 15.223C26.6893 15.9044 27.2302 16.7157 27.6304 17.6569C28.0306 18.598 28.2308 19.5841 28.2308 20.6154C28.2308 22.2019 27.7837 23.6406 26.8894 24.9315L30.5998 28.6418C30.8666 28.9087 31 29.2332 31 29.6154Z" fill="black"/>
</svg>
